<svg xmlns="http://www.w3.org/2000/svg" viewBox="0 0 24 24" fill="currentColor">
  <path d="M19.586 0c-.818 0-1.508.19-2.073.565-.563.377-.97.936-1.213 1.68a3.193 3.193 0 0 0-.112.437 8.365 8.365 0 0 0-.078.53 9 9 0 0 0-.05.727c-.01.282-.013.621-.013 1.016a31.121 31.121 0 0 0 .014 1.017 9 9 0 0 0 .05.727 7.946 7.946 0 0 0 .078.53h-.005a3.334 3.334 0 0 0 .112.438c.244.743.65 1.303 1.214 1.68.565.376 1.256.564 2.075.564.8 0 1.536-.213 2.105-.603.57-.39.94-.916 1.175-1.65.076-.235.135-.558.177-.93a10.9 10.9 0 0 0 .043-1.207v-.82c0-.095-.047-.142-.14-.142h-3.064c-.094 0-.14.047-.14.141v.956c0 .094.046.14.14.14h1.666c.056 0 .084.03.084.086 0 .36 0 .62-.036.865-.038.244-.1.447-.147.606-.108.335-.311.622-.603.876-.295.254-.68.378-1.19.378-.48 0-.894-.138-1.244-.415-.35-.277-.6-.638-.727-1.09a3.51 3.51 0 0 1-.123-.667 8.094 8.094 0 0 1-.04-.727v-.633a7.5 7.5 0 0 1 .04-.655c.017-.212.058-.407.123-.587.127-.453.376-.81.727-1.08.35-.27.766-.404 1.245-.404.36 0 .64.06.862.174.22.116.376.26.49.432.114.173.19.37.23.593.04.223.06.442.06.66V4.18h1.96v-.49a4.49 4.49 0 0 0-.088-.7 2.964 2.964 0 0 0-.332-.907c-.222-.4-.549-.72-.977-.96-.43-.24-.964-.36-1.608-.36zm-8.49 2.12c-.6 0-1.13.09-1.59.27a3.45 3.45 0 0 0-1.185.73 3.1 3.1 0 0 0-.746 1.098c-.172.418-.258.87-.258 1.352s.086.934.258 1.352c.172.42.42.78.746 1.08.326.3.73.54 1.185.71.46.18.99.27 1.59.27.6 0 1.13-.09 1.59-.27a3.3 3.3 0 0 0 1.186-.71c.325-.3.573-.66.745-1.08.172-.418.258-.87.258-1.352s-.086-.934-.258-1.352a3.1 3.1 0 0 0-.746-1.098 3.45 3.45 0 0 0-1.185-.73 4.54 4.54 0 0 0-1.59-.27zm-4.76.24H.5v9.28h1.833V8.05c0-.046.024-.07.072-.07h1.75c.548 0 .973.133 1.275.4.3.266.45.65.45 1.15v4.107h1.834V9.53c0-.916-.27-1.618-.81-2.11-.54-.49-1.314-.736-2.32-.736zm4.76 1.39c.38 0 .71.072.985.216.275.145.5.34.675.586a2.48 2.48 0 0 1 .39.837c.086.316.128.653.128 1.01 0 .358-.042.696-.128 1.01a2.481 2.481 0 0 1-.39.838c-.175.245-.4.44-.675.586-.275.144-.604.216-.985.216-.38 0-.71-.072-.985-.216a2.13 2.13 0 0 1-.675-.586 2.474 2.474 0 0 1-.39-.838 3.818 3.818 0 0 1-.128-1.01c0-.357.043-.694.128-1.01.085-.315.214-.593.39-.837.175-.246.4-.44.675-.586.275-.144.604-.216.985-.216zM0 13.64h1.833v.42c0 .046.024.07.071.07h1.75c.548 0 .973.133 1.275.4.3.266.45.65.45 1.15v4.107h1.833V15.68c0-.916-.27-1.618-.81-2.11-.54-.49-1.314-.736-2.32-.736H0zm9.24 0v5.78c.058.16.126.31.206.45.16.28.38.51.66.69.28.18.61.31.99.39.38.08.78.12 1.2.12.42 0 .82-.04 1.2-.12.38-.08.71-.21.99-.39.28-.18.5-.41.66-.69.08-.14.148-.29.206-.45v-.27h-1.68v.12c-.07.21-.19.37-.36.49-.17.12-.36.18-.57.18-.21 0-.4-.06-.57-.18a.917.917 0 0 1-.36-.49v-4.4a.917.917 0 0 1 .36-.49c.17-.12.36-.18.57-.18.21 0 .4.06.57.18.17.12.29.28.36.49v.12h1.68v-.27a2.62 2.62 0 0 0-.206-.45 1.8 1.8 0 0 0-.66-.69c-.28-.18-.61-.31-.99-.39-.38-.08-.78-.12-1.2-.12-.42 0-.82.04-1.2.12-.38.08-.71.21-.99.39-.28.18-.5.41-.66.69-.08.14-.148.29-.206.45zm10.17 0c-.6 0-1.13.09-1.59.27a3.45 3.45 0 0 0-1.185.73 3.1 3.1 0 0 0-.746 1.098c-.172.418-.258.87-.258 1.352s.086.934.258 1.352c.172.42.42.78.746 1.08.326.3.73.54 1.185.71.46.18.99.27 1.59.27.6 0 1.13-.09 1.59-.27a3.3 3.3 0 0 0 1.186-.71c.325-.3.573-.66.745-1.08.172-.418.258-.87.258-1.352s-.086-.934-.258-1.352a3.1 3.1 0 0 0-.746-1.098 3.45 3.45 0 0 0-1.185-.73 4.54 4.54 0 0 0-1.59-.27zm0 1.39c.38 0 .71.072.985.216.275.145.5.34.675.586.175.244.304.522.39.837.086.316.128.653.128 1.01 0 .358-.042.696-.128 1.01a2.481 2.481 0 0 1-.39.838c-.175.245-.4.44-.675.586-.275.144-.604.216-.985.216-.38 0-.71-.072-.985-.216a2.13 2.13 0 0 1-.675-.586 2.474 2.474 0 0 1-.39-.838 3.818 3.818 0 0 1-.128-1.01c0-.357.043-.694.128-1.01.085-.315.214-.593.39-.837.175-.246.4-.44.675-.586.275-.144.604-.216.985-.216z"/>
</svg>
