<svg xmlns="http://www.w3.org/2000/svg" viewBox="0 0 24 24" fill="currentColor">
  <path d="M19.586 0c-.818 0-1.508.19-2.073.565-.563.377-.97.936-1.213 1.68a3.193 3.193 0 0 0-.112.437 8.365 8.365 0 0 0-.078.53 9 9 0 0 0-.05.727c-.01.282-.013.621-.013 1.016a31.121 31.121 0 0 0 .014 1.017 9 9 0 0 0 .05.727 7.946 7.946 0 0 0 .078.53 3.334 3.334 0 0 0 .112.438c.244.743.65 1.303 1.214 1.68.565.376 1.256.564 2.075.564.8 0 1.536-.213 2.105-.603.57-.39.94-.916 1.175-1.65.076-.235.135-.558.177-.93a10.9 10.9 0 0 0 .043-1.207v-.82c0-.095-.047-.142-.14-.142h-3.064c-.094 0-.14.047-.14.141v.956c0 .094.046.14.14.14h1.666c.056 0 .084.03.084.086 0 .36 0 .62-.036.865-.038.244-.1.447-.147.606-.108.335-.311.622-.603.876-.295.254-.68.378-1.19.378-.48 0-.894-.138-1.244-.415-.35-.277-.6-.638-.727-1.09a3.51 3.51 0 0 1-.123-.667 8.094 8.094 0 0 1-.04-.727v-.633c.003-.22.015-.418.04-.655.017-.212.058-.407.123-.587.127-.453.376-.81.727-1.08.35-.27.766-.404 1.245-.404.36 0 .64.06.862.174.22.116.376.26.49.432.114.173.19.37.23.593.04.223.06.442.06.66h1.96v-.076a3.5 3.5 0 0 0-.062-.584 2.927 2.927 0 0 0-.358-1.017c-.222-.4-.549-.72-.977-.96-.43-.24-.964-.36-1.608-.36zM4.166 4.627c-.786 0-1.49.2-2.057.595C1.54 5.617 1.1 6.19.836 6.93a4.15 4.15 0 0 0-.224 1.39c0 .487.074.93.224 1.337.15.408.38.768.693 1.08.312.31.7.553 1.16.73.462.175.985.263 1.57.263.39 0 .74-.04 1.058-.12.317-.08.6-.19.856-.34.255-.147.48-.32.672-.52.194-.198.36-.413.493-.644l.127-.225h.044l-.033 1.655v3.52H9.42V4.82H7.533l-.022 1.633h-.056l-.114-.21a3.093 3.093 0 0 0-.475-.62 2.96 2.96 0 0 0-.66-.507 3.404 3.404 0 0 0-.84-.34 3.796 3.796 0 0 0-1.002-.128l-.198-.02zm.258 1.595c.387 0 .73.075 1.028.226.297.15.548.36.75.627.202.268.355.583.46.945.104.363.156.756.156 1.18 0 .42-.052.81-.157 1.172a2.706 2.706 0 0 1-.46.94 2.13 2.13 0 0 1-.75.627c-.297.15-.64.226-1.027.226-.387 0-.73-.075-1.027-.226a2.137 2.137 0 0 1-.75-.628 2.712 2.712 0 0 1-.46-.94 4.03 4.03 0 0 1-.156-1.17c0-.425.052-.818.157-1.18.104-.363.257-.678.46-.946.2-.268.452-.477.75-.627.296-.15.64-.226 1.026-.226z"/>
</svg>
